<?xml version="1.0" encoding="utf-8"?>
<!-- Generator: Adobe Illustrator 23.0.3, SVG Export Plug-In . SVG Version: 6.00 Build 0)  -->
<svg version="1.1" id="logosvg.com" xmlns="http://www.w3.org/2000/svg" xmlns:xlink="http://www.w3.org/1999/xlink" x="0px"
	 y="0px" viewBox="0 0 400 300" style="enable-background:new 0 0 400 300;" xml:space="preserve">
<path id="logo" d="M368.6,170.8h3.9v0.6h-1.6v4.5h-0.7v-4.5h-1.6V170.8z M377,170.8l-0.1,0.3l-1.3,4.1l-1.5-4.3h-0.9l0,5h0.7v-4.1
	l1.4,4.1h0.7l1.4-4.1v4.1h0.6v-5H377z M113.1,184c0.1,0.1,0.1,0.3,0.2,0.4c-0.3,0-0.5,0-0.8,0c-0.2-0.4,0-0.9-0.2-1.3
	c0-0.2-0.2-0.3-0.4-0.3c-0.4,0-0.9,0-1.3,0c0,0.5,0,1.1,0,1.6c-0.2,0-0.4,0-0.7,0c0-1.3,0-2.6,0-3.9c0.6,0,1.3,0,1.9,0
	c0.4,0,0.8,0.1,1,0.4c0.3,0.3,0.3,0.7,0.2,1.1c0,0.2-0.2,0.4-0.4,0.5c0.1,0.1,0.3,0.2,0.3,0.4C113.1,183.2,113,183.6,113.1,184z
	 M112.3,181.3c-0.1-0.2-0.3-0.2-0.5-0.2c-0.4,0-0.8,0-1.2,0c0,0.4,0,0.7,0,1.1c0.4,0,0.8,0,1.1,0c0.2,0,0.4,0,0.5-0.2
	C112.5,181.8,112.5,181.5,112.3,181.3z M78.8,128.3c0.3,1.3,0.2,2.6,0.2,3.8c0,7.1,0,14.1,0,21.2c2.1,1,4.5,1.7,6.8,1.7
	c1.6,0,3.2-0.3,4.6-1.1c1.4-0.8,2.6-2,3.5-3.3c1-1.6,1.6-3.3,1.9-5.1c0.4-2.1,0.4-4.2,0.3-6.3c-0.1-3.2-0.6-6.5-2-9.4
	c-0.8-1.6-1.8-3.1-3.1-4.4c-1.2-1.2-2.6-2.2-4-3.1c-3.2-1.9-6.8-3.2-10.4-4.3c-2.3-0.7-4.6-1.4-6.9-2.1c-4-1.1-8.1-2.2-12.2-3
	c0,22.5,0,45,0,67.5c5.1,1.6,10.3,3.2,15.4,4.8c0-18.9,0-37.8,0-56.8c0-1.1,0.2-2.2,0.9-3.1c0.4-0.5,1.1-0.8,1.8-0.7
	c0.7,0.1,1.3,0.4,1.8,0.9C78.2,126.4,78.6,127.4,78.8,128.3z M38.6,168.4c5.3-1.9,10.6-3.8,15.9-5.6c0-0.4,0-0.7,0-1.1
	c0-2.6,0-5.2,0-7.8c-6.7,2.3-13.4,4.7-20.1,7.1c-1.6,0.6-3.3,1.1-4.9,1.8c-1.9,0.8-3.7,1.6-5.3,2.8c-0.7,0.5-1.4,1.1-1.7,1.9
	c-0.4,0.8-0.4,1.7-0.1,2.6c0.4,1,1.1,1.8,1.9,2.4c1.5,1.1,3.2,1.8,5,2.3c5.4,1.8,11.1,2.6,16.8,2.5c2.8,0,5.6-0.4,8.4-0.9
	c0-0.4,0-0.9,0-1.3c0-2.2,0-4.4,0-6.6c-2.3,0.8-4.5,1.6-6.8,2.4c-0.9,0.3-1.7,0.6-2.7,0.8c-1.3,0.3-2.7,0.4-4.1,0.4
	c-1.2-0.1-2.5-0.1-3.7-0.6c-0.4-0.2-0.9-0.4-1-0.9c-0.1-0.4,0.1-0.8,0.3-1C37.1,168.9,37.9,168.6,38.6,168.4z M114.3,180.4
	c0.8,1,0.9,2.5,0.4,3.6c-0.6,1.2-1.9,2-3.2,2c-1.2,0-2.4-0.7-3-1.7c-0.5-0.9-0.6-2.1-0.2-3.1c0.5-1.1,1.6-2,2.8-2.1
	C112.3,178.9,113.5,179.4,114.3,180.4z M114.3,181.7c-0.2-0.8-0.8-1.4-1.5-1.8c-0.6-0.3-1.4-0.4-2-0.3c-0.7,0.2-1.3,0.6-1.7,1.1
	c-0.5,0.7-0.7,1.5-0.5,2.3c0.2,0.7,0.6,1.4,1.3,1.8c1,0.6,2.4,0.6,3.3-0.1C114.2,184.2,114.6,182.8,114.3,181.7z M258.2,129.8
	c-7,0.9-10.4,5.7-10.4,11.9v20.9c0,4.3-2.1,7.3-6.3,7.3h-27.8c-0.2,0-0.3,0.1-0.3,0.3v4.2c0,0.2,0.1,0.3,0.2,0.3h31.6
	c8.2-0.2,12.3-5.4,12.3-12.1v-20.9c0-4.3,2-7.3,6.3-7.3h26.4c0.2,0,0.3-0.2,0.3-0.3v-4.2c0,0,0-0.1,0-0.1H258.2z M205.2,129.8h-56.1
	c0,0,0,0.1,0,0.1v4.2c0,0.2,0.1,0.3,0.3,0.3h50.2c4.3,0,6.3,3,6.3,7.3c0,4.3-2,7.3-6.3,7.3h-39.7c-6.2,0-10.8,5.2-10.8,12v13.3
	c0,0.2,0.1,0.3,0.2,0.3h9.3c0.1,0,0.2-0.2,0.2-0.3V161c0-4.3,2.4-7.2,6-7.2h38.1c8.6,0,12.8-5.3,12.8-12.1
	C215.6,135.5,212.1,130.7,205.2,129.8z M110.5,160.8c-0.9-0.3-1.9-0.7-2.8-0.9c-4.8-1.5-9.8-2.1-14.9-2.1c-1.5,0.1-3.1,0.1-4.6,0.3
	c-4.2,0.5-8.4,1.3-12.5,2.7c0,3.1,0,6.1,0,9.2c5.6-1.9,11.1-3.9,16.7-5.8c1.8-0.6,3.8-0.9,5.8-0.9c1.2,0,2.5,0.1,3.7,0.6
	c0.4,0.2,0.9,0.4,1,0.8c0.2,0.5-0.2,0.9-0.5,1.2c-0.9,0.7-2,1-3.1,1.4c-7.8,2.8-15.6,5.5-23.4,8.3c-0.2,0-0.1,0.2-0.1,0.3
	c0,2.8,0,5.7,0,8.5c10.3-3.7,20.5-7.3,30.8-11c1.7-0.6,3.4-1.1,5-1.9c1.5-0.8,3-1.6,4.1-2.9c0.6-0.7,1-1.5,1-2.5
	c0-1.1-0.7-2.1-1.5-2.8C113.8,162.1,112.2,161.4,110.5,160.8z M352.7,148.7h-42.4c-1.3,0-2.6-1.3-2.6-2.5v-11.4h56.6v-5.1h-65.6v19
	c0,2.5,2.6,5.1,5.1,5.1h46.3c2.6,0,6.1,3.7,6.4,7.6c0.3,4.2-3.9,8.9-6.4,8.9h-51.4v5.1h54c6.4,0,12.9-5.1,12.9-13.9
	C365.6,152.5,357.8,148.7,352.7,148.7z"/>
</svg>
